<svg width="20" height="20" viewBox="0 0 20 20" fill="none" xmlns="http://www.w3.org/2000/svg">
<path fill-rule="evenodd" clip-rule="evenodd" d="M6.93342 6.21355C7.15865 7.49136 7.89894 8.93496 9.17628 10.1651C10.4536 11.3952 11.9241 12.0807 13.2094 12.2576C14.4967 12.4349 15.4603 12.1003 16.0408 11.4975L18.5618 13.9254C17.0153 15.5312 14.8248 16.0131 12.732 15.7249C10.6374 15.4365 8.50185 14.3747 6.74843 12.6861C4.995 10.9975 3.85359 8.90342 3.48655 6.8211C3.11985 4.74067 3.51894 2.53357 5.06543 0.927734L7.58645 3.35559C7.00594 3.95837 6.70786 4.93385 6.93342 6.21355Z" fill="#202124"/>
<path d="M8.94217 3.0279L6.75647 0.802786C6.32113 0.359592 5.60894 0.353226 5.16574 0.788568C4.88137 1.0679 4.76607 1.47687 4.86266 1.86361L5.39594 3.99884C5.49801 4.40753 5.70749 4.7815 6.00268 5.08202L6.41926 5.50611C7.1036 6.20279 8.22313 6.2128 8.91982 5.52846C9.6165 4.84412 9.6265 3.72458 8.94217 3.0279Z" fill="#202124"/>
<path d="M16.1961 10.2504L18.4015 12.4559C18.8408 12.8952 18.8408 13.6074 18.4015 14.0467C18.1197 14.3286 17.7097 14.4402 17.3238 14.3402L15.1935 13.7878C14.7857 13.6821 14.4136 13.4693 14.1158 13.1714L13.6954 12.7511C13.0049 12.0605 13.0049 10.9409 13.6954 10.2504C14.3859 9.55987 15.5055 9.55987 16.1961 10.2504Z" fill="#202124"/>
</svg>
